<svg width="30" height="30" viewBox="0 0 30 30" fill="none" xmlns="http://www.w3.org/2000/svg">
<path d="M7.04201 22.917H17.75V20.833H7.04201V22.917ZM7.04201 16.042H22.958V13.958H7.04201V16.042ZM7.04201 9.16701H22.958V7.08301H7.04201V9.16701ZM3.45801 29.167C2.73601 29.167 2.11801 28.91 1.60401 28.396C1.09001 27.882 0.833008 27.264 0.833008 26.542V3.45801C0.833008 2.73601 1.09001 2.11801 1.60401 1.60401C2.11801 1.09001 2.73601 0.833008 3.45801 0.833008H26.542C27.264 0.833008 27.882 1.09001 28.396 1.60401C28.91 2.11801 29.167 2.73601 29.167 3.45801V26.542C29.167 27.264 28.91 27.882 28.396 28.396C27.882 28.91 27.264 29.167 26.542 29.167H3.45801ZM3.45801 27.083H26.542C26.6807 27.083 26.8057 27.0277 26.917 26.917C27.0277 26.8057 27.083 26.6807 27.083 26.542V3.45801C27.083 3.31934 27.0277 3.19434 26.917 3.08301C26.8057 2.97234 26.6807 2.91701 26.542 2.91701H3.45801C3.31934 2.91701 3.19434 2.97234 3.08301 3.08301C2.97234 3.19434 2.91701 3.31934 2.91701 3.45801V26.542C2.91701 26.6807 2.97234 26.8057 3.08301 26.917C3.19434 27.0277 3.31934 27.083 3.45801 27.083Z" fill="white"/>
</svg>
